<?xml version="1.0" encoding="utf-8"?>
<!-- Generator: Adobe Illustrator 15.0.0, SVG Export Plug-In . SVG Version: 6.00 Build 0)  -->
<!DOCTYPE svg PUBLIC "-//W3C//DTD SVG 1.1//EN" "http://www.w3.org/Graphics/SVG/1.1/DTD/svg11.dtd">
<svg version="1.1" id="Layer_1" xmlns="http://www.w3.org/2000/svg" xmlns:xlink="http://www.w3.org/1999/xlink" x="0px" y="0px"
	 width="48px" height="48px" viewBox="0 0 48 48" enable-background="new 0 0 48 48" xml:space="preserve">
<g>
	<g>
		<path fill="#E8B909" d="M38.321,17.368l-5.934,23.081c7.938-2.25,13.755-9.545,13.755-18.203c0-6.987-3.785-13.088-9.416-16.367"
			/>
	</g>
	<g>
		<path fill="none" stroke="#E8B909" stroke-miterlimit="10" d="M30.117,42.191"/>
		<path fill="#E8B909" d="M6.138,16.495l6.604,25.697c2.234,2.233,5.688,2.849,8.625,2.854c2.985,0.006,6.59-0.562,8.881-2.854
			l6.604-25.697H6.138z"/>
	</g>
	<g>
		<path fill="#FFD400" d="M21.498,27.684V27.68c6.129-0.098,12.268-2.291,17.313-6.513c5.059-4.91,1.484-17.922-7.167-18.789
			c2.751,2.417,4.577,9.162,3.077,13.944v0c-0.71-0.262-1.46-0.629-2.265-1.121c-3.534-2.424-6.882-4.323-10.96-4.412v-0.006v0.006
			c-4.079,0.089-7.427,1.987-10.96,4.412c-0.804,0.492-1.556,0.859-2.266,1.121v0c-1.5-4.782,0.326-11.526,3.078-13.944
			C2.696,3.245-0.878,16.257,4.179,21.167c5.047,4.222,11.187,6.416,17.315,6.513v0.004"/>
	</g>
</g>
</svg>
