<?xml version="1.0" encoding="utf-8"?>
<!-- Generator: Adobe Illustrator 15.0.0, SVG Export Plug-In . SVG Version: 6.00 Build 0)  -->
<!DOCTYPE svg PUBLIC "-//W3C//DTD SVG 1.1//EN" "http://www.w3.org/Graphics/SVG/1.1/DTD/svg11.dtd">
<svg version="1.1" id="Layer_1" xmlns="http://www.w3.org/2000/svg" xmlns:xlink="http://www.w3.org/1999/xlink" x="0px" y="0px"
	 width="58px" height="48px" viewBox="0 0 58 48" enable-background="new 0 0 58 48" xml:space="preserve">
<polygon fill="#848778" points="9.24,33.93 2.666,24.604 9.24,15.275 6.574,15.275 0,24.604 6.574,33.93 "/>
<g>
	<g>
		<path fill="#E8B909" d="M49.178,18.26l-5.934,23.081c7.938-2.25,13.755-9.545,13.755-18.203c0-6.987-3.785-13.088-9.416-16.367"/>
	</g>
	<g>
		<path fill="none" stroke="#E8B909" stroke-miterlimit="10" d="M40.974,43.083"/>
		<path fill="#E8B909" d="M16.994,17.386l6.604,25.697c2.233,2.233,5.688,2.849,8.625,2.854c2.984,0.006,6.59-0.562,8.881-2.854
			l6.604-25.697H16.994z"/>
	</g>
	<g>
		<path fill="#FFD400" d="M32.354,28.575v-0.004c6.129-0.098,12.268-2.291,17.312-6.514c5.059-4.909,1.484-17.922-7.167-18.789
			c2.751,2.417,4.577,9.162,3.077,13.944v0.001c-0.71-0.262-1.46-0.629-2.265-1.121c-3.534-2.425-6.882-4.323-10.96-4.412v-0.006
			v0.006c-4.079,0.089-7.428,1.987-10.961,4.412c-0.804,0.492-1.556,0.859-2.266,1.121v-0.001c-1.5-4.782,0.326-11.526,3.078-13.944
			c-8.651,0.867-12.227,13.879-7.168,18.789c5.047,4.223,11.186,6.416,17.314,6.514v0.004"/>
	</g>
</g>
</svg>
