<?xml version="1.0" encoding="utf-8"?>
<!-- Generator: Adobe Illustrator 15.0.0, SVG Export Plug-In . SVG Version: 6.00 Build 0)  -->
<!DOCTYPE svg PUBLIC "-//W3C//DTD SVG 1.1//EN" "http://www.w3.org/Graphics/SVG/1.1/DTD/svg11.dtd">
<svg version="1.1" id="Layer_1" xmlns="http://www.w3.org/2000/svg" xmlns:xlink="http://www.w3.org/1999/xlink" x="0px" y="0px"
	 width="48px" height="48px" viewBox="0 0 48 48" enable-background="new 0 0 48 48" xml:space="preserve">
<path fill="#FFD400" d="M44.559,31.203V25.76c0-8.799-6.156-15.957-14.955-15.957h-0.84v7.979h0.84c4.398,0,6.979,3.578,6.979,7.979
	v5.444h-3.908l3.908,5.217v0.002h0.002l3.984,5.32l3.984-5.32h0.004v-0.002l3.908-5.217h-3.908v-0.002H44.559z"/>
<path fill="#FFD400" d="M16.922,9.802H16.49c-8.798,0-14.954,7.158-14.954,15.955v11.747h7.978V25.757
	c0-4.398,2.578-7.977,6.977-7.977h0.432v3.95l10.54-7.897L16.922,5.937V9.802z"/>
</svg>
