<?xml version="1.0" encoding="utf-8"?>
<!-- Generator: Adobe Illustrator 15.0.0, SVG Export Plug-In . SVG Version: 6.00 Build 0)  -->
<!DOCTYPE svg PUBLIC "-//W3C//DTD SVG 1.1//EN" "http://www.w3.org/Graphics/SVG/1.1/DTD/svg11.dtd">
<svg version="1.1" id="Layer_1" xmlns="http://www.w3.org/2000/svg" xmlns:xlink="http://www.w3.org/1999/xlink" x="0px" y="0px"
	 width="96px" height="96px" viewBox="0 0 96 96" enable-background="new 0 0 96 96" xml:space="preserve">
<g>
	<g>
		<path fill="#E8B909" d="M77.713,34.84L65.4,82.727c16.471-4.668,28.537-19.803,28.537-37.766c0-14.497-7.852-27.154-19.535-33.957
			"/>
	</g>
	<g>
		<path fill="none" stroke="#E8B909" stroke-miterlimit="10" d="M60.691,86.342"/>
		<path fill="#E8B909" d="M10.941,33.027l13.702,53.314c4.633,4.631,11.798,5.907,17.893,5.919
			c6.192,0.014,13.672-1.166,18.424-5.919l13.701-53.314H10.941z"/>
	</g>
	<g>
		<path fill="#FFD400" d="M42.808,56.242v-0.008c12.715-0.205,25.452-4.756,35.918-13.515c10.494-10.186,3.08-37.182-14.869-38.981
			c5.707,5.016,9.496,19.008,6.385,28.93v0.001c-1.475-0.543-3.031-1.305-4.699-2.326c-7.332-5.03-14.279-8.969-22.739-9.153v-0.012
			v0.012c-8.462,0.184-15.41,4.123-22.74,9.153c-1.667,1.021-3.228,1.783-4.7,2.326v-0.001c-3.112-9.921,0.677-23.914,6.387-28.93
			C3.8,5.538-3.617,32.534,6.877,42.72c10.471,8.759,23.208,13.31,35.922,13.515v0.008"/>
	</g>
</g>
</svg>
