<?xml version="1.0" encoding="utf-8"?>
<!-- Generator: Adobe Illustrator 15.0.0, SVG Export Plug-In . SVG Version: 6.00 Build 0)  -->
<!DOCTYPE svg PUBLIC "-//W3C//DTD SVG 1.1//EN" "http://www.w3.org/Graphics/SVG/1.1/DTD/svg11.dtd" [
	<!ENTITY ns_extend "http://ns.adobe.com/Extensibility/1.0/">
	<!ENTITY ns_ai "http://ns.adobe.com/AdobeIllustrator/10.0/">
	<!ENTITY ns_graphs "http://ns.adobe.com/Graphs/1.0/">
	<!ENTITY ns_vars "http://ns.adobe.com/Variables/1.0/">
	<!ENTITY ns_imrep "http://ns.adobe.com/ImageReplacement/1.0/">
	<!ENTITY ns_sfw "http://ns.adobe.com/SaveForWeb/1.0/">
	<!ENTITY ns_custom "http://ns.adobe.com/GenericCustomNamespace/1.0/">
	<!ENTITY ns_adobe_xpath "http://ns.adobe.com/XPath/1.0/">
]>
<svg version="1.1" id="Layer_1" xmlns:x="&ns_extend;" xmlns:i="&ns_ai;" xmlns:graph="&ns_graphs;"
	 xmlns="http://www.w3.org/2000/svg" xmlns:xlink="http://www.w3.org/1999/xlink" x="0px" y="0px" width="96px" height="96px"
	 viewBox="0 0 96 96" enable-background="new 0 0 96 96" xml:space="preserve">
<metadata>
	<sfw  xmlns="&ns_sfw;">
		<slices></slices>
		<sliceSourceBounds  height="7891.891" width="7977.277" y="77.609" x="-7809.5" bottomLeftOrigin="true"></sliceSourceBounds>
	</sfw>
</metadata>
<g opacity="0.72">
	<g opacity="0.26">
	</g>
</g>
<g>
	<polygon fill="#A31837" points="17.222,31.193 9.825,9.858 22.061,15.542 	"/>
	<g>
		<path fill="none" d="M30.57-0.075L6.006,79.444c0.789,1.786,3.318,4.417,6.903,6.232c2.48,1.261,7.385,3.053,12.893,1.298
			l8.243-13.779l3.475-59.901L30.57-0.075z"/>
		<path fill="#A31837" d="M50.021,13.359c-0.818,0-1.631,0.028-2.446,0.074c-0.264,0.019-0.527,0.046-0.786,0.063
			c-0.551,0.048-1.101,0.092-1.65,0.159c-0.307,0.036-0.613,0.082-0.92,0.125c-0.503,0.069-1.002,0.145-1.499,0.236
			c-0.322,0.053-0.638,0.117-0.953,0.182c-0.243,0.048-0.486,0.107-0.725,0.16l-3.232,55.697
			c6.009-3.539,21.513-14.209,20.041-29.182l3.565-0.348c1.884,19.163-19.205,31.326-23.595,33.634l10.214,21.676
			c0.656,0.037,1.321,0.053,1.981,0.053c22.753,0,41.261-18.514,41.261-41.266c0-4.567-0.736-9.05-2.194-13.331
			C83.387,24.584,67.689,13.359,50.021,13.359z"/>
		<path fill="#FFFFFF" d="M44.22,13.782c0.307-0.043,0.613-0.091,0.92-0.125C44.833,13.69,44.526,13.738,44.22,13.782z"/>
		<path fill="#FFFFFF" d="M39.775,14.64l-1.378,0.352l-0.88-1.697l-3.475,59.901l0.97-1.623l0.48-0.232
			c0.047-0.022,0.927-0.465,2.319-1.282l3.232-55.697C40.62,14.454,40.194,14.533,39.775,14.64z"/>
		<path fill="#FFFFFF" d="M46.79,13.497c0.262-0.017,0.524-0.044,0.786-0.063C47.314,13.453,47.052,13.479,46.79,13.497z"/>
		<path fill="#FFFFFF" d="M41.769,14.197c0.317-0.063,0.632-0.127,0.953-0.183C42.399,14.071,42.083,14.133,41.769,14.197z"/>
	</g>
	<path fill="#F92A2E" d="M50.021,13.359c-3.468,0-6.915,0.433-10.246,1.284l-1.378,0.35L30.57-0.073L6.006,79.444
		c0.789,1.786,3.318,4.417,6.903,6.232c2.48,1.261,7.385,3.053,12.893,1.298l9.213-15.402l0.48-0.232
		c0.243-0.118,24.17-12.023,22.36-30.464c0,0,3.567-0.232,3.571-0.174l27.447,0.018C83.016,24.326,67.482,13.359,50.021,13.359z"/>
</g>
</svg>
