<?xml version="1.0" encoding="utf-8"?>
<!-- Generator: Adobe Illustrator 15.0.0, SVG Export Plug-In . SVG Version: 6.00 Build 0)  -->
<!DOCTYPE svg PUBLIC "-//W3C//DTD SVG 1.1//EN" "http://www.w3.org/Graphics/SVG/1.1/DTD/svg11.dtd" [
	<!ENTITY ns_extend "http://ns.adobe.com/Extensibility/1.0/">
	<!ENTITY ns_ai "http://ns.adobe.com/AdobeIllustrator/10.0/">
	<!ENTITY ns_graphs "http://ns.adobe.com/Graphs/1.0/">
	<!ENTITY ns_vars "http://ns.adobe.com/Variables/1.0/">
	<!ENTITY ns_imrep "http://ns.adobe.com/ImageReplacement/1.0/">
	<!ENTITY ns_sfw "http://ns.adobe.com/SaveForWeb/1.0/">
	<!ENTITY ns_custom "http://ns.adobe.com/GenericCustomNamespace/1.0/">
	<!ENTITY ns_adobe_xpath "http://ns.adobe.com/XPath/1.0/">
]>
<svg version="1.1" id="Layer_1" xmlns:x="&ns_extend;" xmlns:i="&ns_ai;" xmlns:graph="&ns_graphs;"
	 xmlns="http://www.w3.org/2000/svg" xmlns:xlink="http://www.w3.org/1999/xlink" x="0px" y="0px" width="310px" height="303.114px"
	 viewBox="0 0 310 303.114" enable-background="new 0 0 310 303.114" xml:space="preserve">
<metadata>
	<sfw  xmlns="&ns_sfw;">
		<slices></slices>
		<sliceSourceBounds  height="303.113" width="213.845" y="-110.614" x="-77.423" bottomLeftOrigin="true"></sliceSourceBounds>
	</sfw>
</metadata>
<path fill="#CFF219" d="M103.566,97.316c-9-7.984-23.868-9.984-30.333-8.151c10.589,21.37,12.833,41.667,26.994,52.016
	c30.006,19.317,116.3-32.654,134.356-6.404c1.432-47.324-31.033-54.654-35.439-56.295c-6.016-2.241-26.885-7.879-36.174-13.681
	c-15.119-8.05-25.238-21.55-16.071-64.8c-24.29,16.458-41.188,42.826-29.833,72.183c-9.833-5.752-36.333-8.184-51.652,4.973
	C73.23,78.152,97.232,81.499,103.566,97.316z"/>
<path fill="#A7CD5F" d="M227.703,118.722c-12.9-18.409-29.07-19.278-47.586-20.274c-7.089-0.381-14.418-0.775-22.111-2.167
	c-14.33-2.595-31.271-12.99-36.813-30.362c-3.723-11.667-3.418-30.334,18.373-53.783c-6.111,39.786,4.215,51.979,27.763,62.444
	c4.823,1.834,9.83,3.323,14.67,4.764C202.08,85.318,221.109,90.98,227.703,118.722z"/>
<path fill="#BAE24B" d="M138.104,15.243c-5.153,37.844,5.454,49.866,28.816,60.25l0.053,0.022l0.051,0.02
	c4.811,1.826,9.832,3.321,14.689,4.767c18.521,5.511,36.135,10.752,43.629,33.708c-12.582-14.807-27.867-15.63-45.172-16.561
	c-7.058-0.379-14.354-0.772-21.984-2.152c-14.036-2.542-30.624-12.706-36.04-29.683C118.632,54.605,118.815,37.195,138.104,15.243
	 M141.066,9.111c-45.334,46.388-13.623,82.651,16.762,88.154c29.463,5.331,54.166-3.828,71.904,26.484
	c-6.75-40.5-36.826-40.523-62.001-50.083C143.732,62.999,133.982,50.999,141.066,9.111L141.066,9.111z"/>
<path fill="#A7CD5F" d="M146.784,121.451c-10.697,0-13.75-1.596-15.39-2.453c-0.341-0.178-0.637-0.331-0.924-0.448
	c-10.776-4.388-16.216-14.755-19.817-21.615c-0.728-1.388-1.357-2.586-1.96-3.61c-3.377-5.717-11.415-15.253-28.479-18.495
	c4.878-1.095,9.606-1.649,14.109-1.649c21.811,0,34.393,12.712,41.911,20.308c1.643,1.66,3.062,3.093,4.275,4.078
	c13.727,11.151,35.654,17.193,63.509,17.524c-25.583,4.223-44.803,6.36-57.232,6.36
	C146.786,121.451,146.786,121.451,146.784,121.451z"/>
<path fill="#BAE24B" d="M94.325,74.182c21.394,0,33.792,12.527,41.2,20.011c1.664,1.68,3.1,3.132,4.355,4.15
	c12.181,9.896,30.679,15.817,53.96,17.358c-20.574,3.155-36.353,4.75-47.056,4.75c-10.452,0-13.362-1.522-14.926-2.339
	c-0.34-0.178-0.662-0.346-1.01-0.488c-10.438-4.25-15.776-14.422-19.309-21.153c-0.734-1.399-1.369-2.607-1.985-3.655
	c-3.144-5.322-10.216-13.871-24.526-17.886C88.214,74.432,91.321,74.182,94.325,74.182 M94.325,72.182
	c-5.738,0-12.099,0.867-19.151,2.917c19.914,2.122,29.071,12.661,32.659,18.734c3.627,6.159,8.985,20.237,22.262,25.644
	c1.757,0.715,3.842,2.975,16.69,2.975c11.697,0,32.316-1.872,69.743-8.485c-0.137-0.005-0.303-0.007-0.496-0.007
	c-1.568,0-4.971,0.147-9.58,0.147c-15.889,0-46.146-1.75-65.311-17.315C134.597,91.48,121.398,72.182,94.325,72.182L94.325,72.182z"
	/>
<path fill="#A7CD5F" d="M120.206,140.033c-20.182,0-25.163-12.73-31.469-28.847c-2.138-5.463-4.341-11.096-7.316-16.667
	c11.582,0.649,17.208,6.203,23.676,12.587c7.902,7.8,16.859,16.641,38.628,19.034c2.552,0.279,5.625,0.421,9.134,0.421
	c15.188,0,35.974-2.578,50.495-4.51c-44.915,11.714-66.765,15.701-77.8,17.714C123.742,139.938,121.915,140.033,120.206,140.033z"/>
<path fill="#BAE24B" d="M83.14,95.657c9.99,1.043,15.033,6.02,21.254,12.16c8.019,7.915,17.107,16.885,39.223,19.317
	c2.587,0.283,5.697,0.427,9.242,0.427c10.296,0,23.134-1.177,34.86-2.538c-34.553,8.681-52.561,11.973-62.264,13.744
	c-1.833,0.176-3.599,0.268-5.251,0.268c-19.499,0-24.371-12.45-30.538-28.212C87.724,105.854,85.726,100.747,83.14,95.657
	 M79.699,93.459c12.602,22.417,11.996,47.574,40.506,47.574c1.733,0,3.57-0.093,5.528-0.284c12.333-2.25,38.115-7,92.615-21.633
	c-6.762,0.554-42.729,6.445-65.488,6.445c-3.337,0-6.388-0.126-9.024-0.416C103.546,120.716,107.832,93.833,79.699,93.459
	L79.699,93.459z"/>
<path fill="#7C796A" d="M252.834,233.826c-0.717-4.018-2.986-13.257-8.035-16.646c-1.287,3.481-3.709,8.802-4.857,11.745
	c4.591,6.528,7.8,10.496,6.293,14.945c-4.306,5.236-32.898,4.105-36.733,1.721c-7.964-4.948-4.95-15.713-8.306-14.613
	c-2.386,0.092-1.285,11.099-7.796,14.031c-5.503,3.028-22.011,3.578-29.349,0.826c-8.896-3.943-23.844-30.907-48.15-52.95
	c17.319-6.825,41.526-14.599,50.72-17.957c1.243-4.821,1.858-6.286,2.795-11.335c-8.459,2.682-49.179,16.439-57.32,20.613
	c-2.521,3.941-3.576,7.979-3.622,15.406c8.438,8.85,30.495,26.365,27.696,38.654c-0.739,12.286-37.427,9.671-61.308,9.035
	c-11.799-1.014-20.325-8.084-20.853-13.213c-0.731-6.785,3.97-12.131,1.744-13.644c-2.434-1.926-15.361,20.225-1.022,31.852
	c9.299,6.394,19.672,6.62,22.459,6.863c12.707,0.531,24.72,0.564,38.609-0.083c2.904-0.212,27.381-0.871,26.056-24.246
	c4.394,7.294,17.241,22.559,23.366,23.748c8.916,0.982,15.06,1.105,22.012,0c12.949-2.473,12.719-7.088,14.141-8.909
	c5.322,12.764,28.02,9.532,35.563,9.244C254.367,256.243,253.266,241.935,252.834,233.826z"/>
<polygon fill="#7C796A" points="254.365,271.92 246.812,279.456 254.371,286.997 261.922,279.462 "/>
<polygon fill="#7C796A" points="236.141,271.92 228.59,279.456 236.146,286.997 243.699,279.462 "/>
<rect x="180.735" y="276.105" transform="matrix(0.707 0.7072 -0.7072 0.707 253.8925 -49.2637)" fill="#7C796A" width="11.325" height="11.319"/>
<rect x="198.444" y="276.104" transform="matrix(0.707 0.7072 -0.7072 0.707 259.0809 -61.7885)" fill="#7C796A" width="11.324" height="11.318"/>
<polygon fill="#7C796A" points="238.076,295.571 245.635,303.114 253.188,295.579 245.629,288.036 "/>
</svg>
