<?xml version="1.0" encoding="utf-8"?>
<!-- Generator: Adobe Illustrator 15.0.0, SVG Export Plug-In . SVG Version: 6.00 Build 0)  -->
<!DOCTYPE svg PUBLIC "-//W3C//DTD SVG 1.1//EN" "http://www.w3.org/Graphics/SVG/1.1/DTD/svg11.dtd">
<svg version="1.1" id="Layer_1" xmlns="http://www.w3.org/2000/svg" xmlns:xlink="http://www.w3.org/1999/xlink" x="0px" y="0px"
	 width="377.781px" height="285.979px" viewBox="0 0 377.781 285.979" enable-background="new 0 0 377.781 285.979"
	 xml:space="preserve">
<g>
	<g>
		<path fill="#E8B909" d="M259.73,105.947l-32.979,128.316c44.792-10.779,78.084-51.081,78.084-99.18
			c0-37.661-20.404-70.556-50.762-88.233"/>
	</g>
	<g>
		<path fill="none" stroke="#E8B909" stroke-miterlimit="10" d="M218.441,242.62"/>
		<path fill="#E8B909" d="M89.165,104.085l35.604,138.535c12.039,12.039,30.658,15.36,46.495,15.382
			c16.097,0.024,35.531-3.029,47.884-15.382l35.604-138.535H89.165z"/>
	</g>
	<g>
		<path fill="#FFD400" d="M171.966,164.404v-0.027c33.044-0.523,66.139-12.349,93.34-35.107
			c27.274-26.468,7.998-96.62-38.643-101.292c14.84,13.024,24.679,49.388,16.596,75.171v0.001c-3.825-1.409-7.877-3.391-12.21-6.043
			c-19.056-13.069-37.103-23.308-59.091-23.784c0,0,0-0.032-0.001-0.032v0.032c-21.989,0.476-40.037,10.714-59.091,23.784
			c-4.333,2.652-8.383,4.634-12.209,6.043v-0.001c-8.084-25.784,1.757-62.147,16.594-75.171
			c-46.64,4.672-65.914,74.825-38.642,101.292c27.2,22.759,60.297,34.584,93.341,35.107v0.027"/>
	</g>
</g>
</svg>
