<?xml version="1.0" encoding="utf-8"?>
<!-- Generator: Adobe Illustrator 15.0.0, SVG Export Plug-In . SVG Version: 6.00 Build 0)  -->
<!DOCTYPE svg PUBLIC "-//W3C//DTD SVG 1.1//EN" "http://www.w3.org/Graphics/SVG/1.1/DTD/svg11.dtd">
<svg version="1.1" id="Layer_1" xmlns="http://www.w3.org/2000/svg" xmlns:xlink="http://www.w3.org/1999/xlink" x="0px" y="0px"
	 width="76px" height="76px" viewBox="0 0 76 76" enable-background="new 0 0 76 76" xml:space="preserve">
<g>
	<path fill="#F1F2F2" d="M57.629,9.895H16.372c-3.861,0-7.02,3.159-7.02,7.02v41.257c0,3.86,3.159,7.021,7.02,7.021h41.257
		c3.859,0,7.019-3.16,7.019-7.021V16.914C64.647,13.054,61.488,9.895,57.629,9.895z M39.324,48.598
		c-4.393,0-8.312-2.365-10.876-6.215v14.721c0,2.207-1.789,3.996-3.996,3.996s-3.996-1.789-3.996-3.996V17.928
		c0-2.207,1.789-3.997,3.996-3.997s3.996,1.79,3.996,3.997v2.435c2.564-3.816,6.483-6.072,10.876-6.072
		c7.727,0,13.988,5.175,13.988,17.153C53.312,42.723,47.051,48.598,39.324,48.598z"/>
	<path fill="#F1F2F2" d="M37.251,20.618c-5.153,0-8.353,5.185-8.353,10.656c0,7.236,4.357,10.548,8.353,10.548
		c4.553,0,8.245-4.771,8.245-10.656C45.496,25.281,42.256,20.618,37.251,20.618z"/>
</g>
</svg>
