<?xml version="1.0" encoding="utf-8"?>
<!-- Generator: Adobe Illustrator 15.0.0, SVG Export Plug-In  -->
<!DOCTYPE svg PUBLIC "-//W3C//DTD SVG 1.1//EN" "http://www.w3.org/Graphics/SVG/1.1/DTD/svg11.dtd" [
	<!ENTITY ns_flows "http://ns.adobe.com/Flows/1.0/">
]>
<svg version="1.1"
	 xmlns="http://www.w3.org/2000/svg" xmlns:xlink="http://www.w3.org/1999/xlink" xmlns:a="http://ns.adobe.com/AdobeSVGViewerExtensions/3.0/"
	 x="0px" y="0px" width="48px" height="48px" viewBox="-4.265 -4.097 48 48"
	 overflow="visible" enable-background="new -4.265 -4.097 48 48" xml:space="preserve">
<defs>
</defs>
<path fill="#D7DF23" d="M35.315,28.197c1.617-2.846,2.469-6.048,2.469-9.307C37.784,8.474,29.309,0,18.892,0S0,8.474,0,18.89
	c0,10.417,8.474,18.892,18.892,18.892c3.001,0,5.975-0.723,8.64-2.096l11.021,2.716L35.315,28.197z M33.898,34.043l-6.796-1.677
	l-0.539,0.3c-2.34,1.307-4.992,1.996-7.671,1.996c-8.697,0-15.773-7.074-15.773-15.772c0-8.696,7.076-15.77,15.773-15.77
	c8.696,0,15.772,7.074,15.772,15.77c0,2.919-0.82,5.786-2.373,8.29l-0.38,0.609L33.898,34.043z"/>
<circle fill="#D7DF23" cx="10.094" cy="18.727" r="2.591"/>
<circle fill="#D7DF23" cx="18.879" cy="18.728" r="2.591"/>
<circle fill="#D7DF23" cx="27.926" cy="18.728" r="2.591"/>
</svg>
