<?xml version="1.0" encoding="utf-8"?>
<!-- Generator: Adobe Illustrator 15.0.0, SVG Export Plug-In . SVG Version: 6.00 Build 0)  -->
<!DOCTYPE svg PUBLIC "-//W3C//DTD SVG 1.1//EN" "http://www.w3.org/Graphics/SVG/1.1/DTD/svg11.dtd">
<svg version="1.1" id="Layer_1" xmlns="http://www.w3.org/2000/svg" xmlns:xlink="http://www.w3.org/1999/xlink" x="0px" y="0px"
	 width="32px" height="32px" viewBox="0 0 32 32" enable-background="new 0 0 32 32" xml:space="preserve">
<path id="network-5-icon" fill="#E8B909" d="M17.58,10.847h0.002c0.016,0.001,0.027-0.011,0.043-0.011
	c0.044-0.003,0.184,0.093,0.23,0.114c0.016,0.006,0.033,0.009,0.047,0.018c0.027,0.017,0.049,0.043,0.078,0.057
	c0.01,0.005,0.024,0.013,0.049,0.008c0.017-0.003,0.041-0.007,0.066-0.092c0.012-0.034-0.029-0.052-0.025-0.083
	c0.006-0.048,0.043-0.083,0.053-0.131c0.004-0.021-0.003-0.032-0.021-0.034c-0.002,0-0.006,0-0.008,0
	c-0.013,0.002-0.023,0.01-0.035,0.011c-0.041,0.004-0.037-0.014-0.072,0.006c-0.019,0.011-0.034,0.025-0.057,0.03
	c-0.02,0.005-0.037-0.008-0.059-0.006c-0.027,0.002-0.045,0.031-0.073,0.03c-0.039-0.001-0.063-0.034-0.1-0.041
	c-0.023-0.004-0.037,0.022-0.06,0.02c-0.021-0.002-0.017-0.011-0.035-0.017c-0.027-0.01-0.062,0.093-0.055,0.104
	C17.559,10.844,17.572,10.846,17.58,10.847z M14.636,6.546c-0.003-0.003-0.005-0.007-0.005-0.013
	c-0.002-0.018,0.017-0.079,0.043-0.084c0.001,0,0.002,0,0.002,0c0.007-0.001,0.011-0.001,0.021,0.013
	c0.002,0.003,0.005,0.004,0.009,0.003c0.002,0,0.003-0.002,0.004-0.003c0.008-0.019,0.01-0.038,0.019-0.056
	c0.002-0.005,0.002-0.01,0-0.014c0,0,0,0,0-0.001c-0.015,0.008-0.032,0.005-0.043-0.007c-0.011-0.012-0.013-0.03-0.004-0.043
	c0.007-0.011,0.016-0.021,0.028-0.028c0.002,0,0.002-0.001,0.004-0.001c0.007-0.003,0.015-0.003,0.021,0
	c0.012,0.005,0.024,0.003,0.035-0.004c0.002-0.001,0.004-0.003,0.006-0.004c0.037-0.03,0.069-0.064,0.097-0.102
	c0.014-0.019,0.027-0.033,0.038-0.037c0.018-0.007,0.035-0.009,0.053-0.009c0.045,0,0.092,0.006,0.136,0.018
	c0.019,0.005,0.061,0.024,0.011,0.056c-0.023,0.014-0.051,0.02-0.07,0.039c-0.016,0.014-0.017,0.035-0.027,0.051
	c-0.002,0.003-0.002,0.007,0,0.009c0.001,0.003,0.005,0.004,0.008,0.004c0.041-0.003,0.261-0.011,0.212,0.057
	c-0.021,0.029-0.038,0.062-0.052,0.096c-0.03,0.082-0.034,0.171-0.01,0.256c0.008,0.023,0.01,0.048,0.008,0.069
	c-0.002,0.024-0.009,0.047-0.007,0.071c0.003,0.024,0.028,0.041,0.021,0.066c-0.001,0.002,0,0.004,0.001,0.006
	c0,0,0.001,0.001,0.001,0c0.005,0,0.009-0.001,0.011-0.001c0.021,0,0.042,0,0.063-0.002c0.007,0,0.008,0.001,0.012,0.005
	c0,0.001,0.05,0.106,0.04,0.119c0,0,0,0-0.001,0c-0.01,0.015-0.009,0.035,0.004,0.049c0.014,0.016,0.026,0.032,0.027,0.056
	c0.001,0.01,0.001,0.011-0.048,0.049c-0.005,0.004-0.007,0.011-0.006,0.017c0.043,0.022,0.043,0.022,0.066,0.01
	c0.035-0.019,0.159,0.045,0.165,0.048h0.001c0.067,0.037,0.057,0.09,0.055,0.101c-0.008,0.033-0.018,0.05-0.032,0.058
	c-0.029,0.016-0.057,0.034-0.084,0.053c-0.004,0.003-0.011,0.002-0.022-0.006c-0.003-0.002-0.005-0.003-0.008-0.005
	C15.435,7.5,15.431,7.5,15.428,7.501c-0.003,0.001-0.006,0.004-0.005,0.007c0.005,0.044,0.03,0.084,0.069,0.107
	c0,0,0.001,0,0.001,0.001c0.001,0,0.002,0.001,0.002,0.002c0.002,0.045-0.108,0.066-0.109,0.066l0,0c0,0,0,0-0.001,0
	c-0.036-0.003-0.07,0.019-0.107,0.014c-0.031-0.005-0.055-0.031-0.087-0.032c-0.077-0.001-0.077-0.001-0.092-0.01
	c-0.005-0.003-0.057-0.017-0.076-0.019c-0.051-0.002-0.09,0.034-0.138,0.044c-0.042,0.009-0.073-0.031-0.114-0.028
	c-0.058,0.005-0.078,0.061-0.117,0.09c-0.004,0.002-0.009,0.003-0.013,0.002c-0.001,0-0.001,0-0.002,0
	c-0.029-0.056-0.083-0.035-0.112-0.017c-0.009,0.005-0.017,0.011-0.024,0.015c-0.01,0.006-0.023,0.004-0.031-0.005
	c-0.008-0.009-0.007-0.023,0.002-0.032c0.016-0.016,0.033-0.034,0.05-0.05c0.05-0.05,0.114-0.081,0.183-0.087
	c0.022-0.003,0.045-0.002,0.067,0c0.042,0.004,0.072-0.017,0.102-0.039c0.008-0.005,0.011-0.015,0.008-0.023
	c-0.003-0.008-0.011-0.014-0.02-0.014c-0.012,0-0.023,0.003-0.034,0.013c-0.003,0.003-0.006,0.004-0.009,0.006
	c-0.014,0.006-0.028,0.006-0.042,0c-0.002-0.001-0.006-0.003-0.008-0.005c-0.027-0.029-0.062-0.05-0.102-0.06
	c-0.041-0.011-0.079,0.025-0.121,0.006C14.521,7.44,14.525,7.4,14.531,7.392c0.006-0.007,0.02-0.009,0.039-0.012
	c0.03-0.004,0.128-0.039,0.142-0.054c0.012-0.014,0.041-0.11,0.003-0.108C14.694,7.22,14.679,7.236,14.66,7.24
	c-0.005,0.001-0.009,0-0.013-0.003c-0.003-0.003-0.005-0.007-0.004-0.011c0-0.002,0.001-0.004,0.002-0.005l0,0
	c0.013-0.022,0.055-0.01,0.056-0.043c0-0.009-0.006-0.015-0.011-0.021c-0.007-0.007-0.007-0.018-0.001-0.025
	c0.005-0.007,0.015-0.011,0.023-0.008l0,0c0.054,0.018,0.112,0.004,0.152-0.036c0.04-0.04,0.054-0.099,0.037-0.152
	c-0.001,0-0.001-0.002-0.002-0.003c0-0.002,0-0.003-0.001-0.004c-0.004-0.021-0.018-0.04-0.037-0.049
	c-0.014-0.007-0.025-0.018-0.032-0.031c-0.001-0.001-0.001-0.001-0.003-0.001c-0.001-0.001-0.003,0-0.005,0
	c-0.052,0.031-0.053,0.031-0.062-0.008c-0.001-0.002-0.002-0.002-0.003-0.004c-0.002-0.001-0.002-0.001-0.002-0.001
	c-0.014,0.004-0.028-0.002-0.035-0.015c-0.007-0.012-0.004-0.029,0.007-0.038c0.012-0.01,0.026-0.021,0.045-0.036
	c0.033-0.026,0.022-0.062,0.023-0.095c0-0.005-0.002-0.011-0.007-0.014c-0.004-0.003-0.011-0.005-0.016-0.003
	c-0.015,0.005-0.029,0.01-0.043,0.016c-0.018,0.008-0.021,0.013-0.033,0.027c-0.013,0.015-0.022,0.027-0.03,0.036
	c-0.007,0.007-0.018,0.009-0.025,0.003c-0.007-0.006-0.012-0.016-0.007-0.025c0.003-0.004,0.005-0.008,0.009-0.013l0,0
	C14.672,6.639,14.67,6.583,14.636,6.546z M16-0.015C7.155-0.015-0.015,7.155-0.015,16c0,8.843,7.17,16.016,16.015,16.016
	c8.846,0,16.016-7.172,16.016-16.016C32.016,7.155,24.846-0.015,16-0.015z M21.016,8.781c0.076,0.023,0.133,0.079,0.155,0.146
	c0.001,0.003,0.002,0.005,0.003,0.008c0.004,0.006,0.018,0.026,0.059,0.021c0.017-0.002,0.168-0.146,0.174-0.158
	c0.011-0.023-0.021-0.029-0.045-0.042c-0.055-0.029-0.09-0.083-0.094-0.145c-0.004-0.061,0.022-0.12,0.072-0.156
	c0-0.001,0-0.001,0-0.001l0.278-0.161l0,0c0.005-0.003,0.011-0.004,0.016-0.005c0.001,0,0.001,0,0.001,0
	c0.018-0.002,0.139-0.074,0.184-0.079c0.014-0.002,0.043,0.03,0.033,0.054c-0.006,0.016-0.02,0.04-0.051,0.058
	c-0.037,0.021-0.131,0.07-0.126,0.113c0.007,0.054,0.069,0.034,0.103,0.055c0.024,0.016,0.018,0.027,0.011,0.05
	c0,0.001,0,0.001,0,0.002c-0.019,0.064-0.048,0.124-0.087,0.179c-0.002,0.003-0.003,0.006-0.003,0.009
	c0.008,0.042,0.008,0.042,0.151,0.099c0.064,0.025,0.137-0.008,0.198,0.029c0.142,0.086,0.245,0.224,0.404,0.281
	c0.053,0.02,0.229,0.092,0.269,0.226c0.073,0.246-0.225,0.292-0.33,0.239c-0.061-0.031-0.089,0.038-0.132,0.059
	c-0.003,0.001-0.005,0.002-0.007,0.003c-0.031,0-0.062-0.006-0.085-0.012c-0.052-0.015-0.272-0.017-0.354-0.051l0,0
	c-0.02-0.01-0.297-0.114-0.317-0.108c-0.089,0.028-0.193-0.037-0.276,0.028c-0.049,0.038-0.109,0.059-0.156,0.097
	c-0.067,0.053-0.07,0.055-0.07,0.07c-0.001,0.001-0.001,0.003-0.001,0.004c-0.003,0.018-0.005,0.033-0.025,0.042
	c-0.024,0.011-0.067,0.017-0.088,0.017c-0.06,0-0.119,0.011-0.18,0.003c-0.056-0.006-0.106,0.031-0.161,0.007l0,0
	c-0.1-0.042-0.186-0.111-0.248-0.199l-0.062-0.088c0,0,0,0,0-0.001c-0.004-0.006-0.004-0.015,0-0.021
	c0.004-0.01,0.017-0.017,0.037,0.005c0,0,0,0,0.002,0c0.002,0.003,0.008,0.004,0.012,0.002c0.005-0.002,0.007-0.007,0.006-0.012
	c-0.014-0.052-0.034-0.129-0.018-0.181c0,0,0,0,0-0.001c0.012-0.031,0.055-0.024,0.064-0.055c0.012-0.036-0.008-0.069-0.012-0.104
	c0-0.016,0.018-0.167,0.018-0.168c0.002,0,0.003,0,0.003,0c0.028-0.014,0.042-0.036,0.048-0.061c0.016-0.065,0.045-0.125,0.086-0.18
	c0.012-0.015,0.022-0.048,0.053-0.132c0.013-0.032,0.015-0.04,0.062-0.054c0.061-0.017,0.122-0.021,0.184-0.013
	c0.033,0.004,0.071,0.01,0.119,0.021c0.004,0.001,0.008,0.004,0.01,0.008c0.002,0.005,0,0.011-0.006,0.014
	c-0.014,0.008-0.021,0.022-0.018,0.039s0.018,0.029,0.035,0.03c0.021,0,0.042-0.009,0.061-0.017
	c0.028-0.014,0.039-0.019,0.063-0.002c0.019,0.012,0.028,0.035,0.026,0.058c-0.008,0.05-0.074,0.049-0.074,0.09
	C20.988,8.762,20.999,8.776,21.016,8.781z M16,29.494c-3.835,0-7.296-1.602-9.753-4.172c-0.112-0.115-0.253-0.414-0.253-0.453
	c-0.003-0.094-0.022-0.188-0.056-0.275c-0.029-0.074-0.063-0.146-0.097-0.221c-0.113-0.246,0.396-0.289,0.538-0.52l0,0
	c0.011-0.021,0.097-0.033,0.199,0.041c0.082,0.057,0.201-0.078,0.189-0.125c-0.034-0.15-0.034-0.177-0.015-0.314
	c0.031-0.234-0.033-0.816-0.061-0.896c-0.093-0.266-0.113-0.399-0.114-0.465c-0.001-0.047,0.126-0.084,0.149-0.162
	c0.046-0.16,0.318-0.455,0.403-0.598c0.073-0.123,0.131-0.264,0.113-0.406c-0.04-0.32-1.06-1.486-1.348-1.703
	C5.665,19.052,5.5,19.051,5.5,19.051c0.014-0.145-0.042-0.285-0.148-0.381c-0.041-0.036-0.071-0.084-0.101-0.132
	c-0.04-0.065-0.11-0.104-0.187-0.104s-0.147,0.039-0.188,0.104l0,0c0.069-0.229,0.072-0.238-0.109-0.461
	c-0.097-0.119-0.109-0.107,0.007-0.326c0.017-0.3-0.569-1.255-1.088-1.841c-0.017-0.019-0.042-0.029-0.072-0.023
	c-0.054-0.048-0.311-0.993-0.368-1.215c-0.002-0.011,0-0.022,0.007-0.03c0.045-0.054,0.063-0.126,0.05-0.195
	c-0.012-0.058-0.034-0.125-0.038-0.183c-0.006-0.108-0.108-0.196-0.125-0.183c-0.028,0.02-0.059,0.022-0.085,0.011
	c-0.027-0.011-0.047-0.035-0.053-0.068c-0.021-0.116-0.123-0.201-0.242-0.2c-0.05,0-0.058-0.01-0.065-0.049
	c-0.002-0.008-0.002-0.017,0-0.025c0.059-0.352,0.1-0.54,0.135-0.692c0-0.002,0.001-0.004,0.001-0.006
	c0.537-2.406,1.716-4.57,3.348-6.302c0.007-0.007,0.017-0.009,0.025-0.007c0.16,0.044,0.148,0.01,0.286-0.156
	C6.57,6.49,6.714,6.455,6.794,6.426c0.08-0.028,0.213-0.041,0.213-0.041C7.084,6.369,7.306,6.419,7.37,6.367
	c0.054-0.043-0.015-0.059,0.017-0.106c0.03-0.045,0.056-0.094,0.077-0.144c0.018-0.043,0.071-0.056,0.11-0.08
	c0.066-0.041,0.002-0.04-0.012-0.063c-0.01-0.017,0.001-0.078,0.026-0.082c0,0,0,0,0.001,0c0.035,0.033,0.084,0.046,0.13,0.035
	C7.76,5.918,7.775,5.904,7.787,5.879c0.008-0.018,0.023-0.03,0.042-0.036l0,0c0.11-0.263-0.377-0.114-0.377-0.115
	c-0.02-0.039,0.257-0.127,0.3-0.14c0,0,0,0,0,0.001c0,0,0,0,0.001,0c0.026,0.007,0.049,0.003,0.071-0.006
	c0.132-0.052,0.28,0.013,0.333,0.145l0,0c0.013,0.037,0.044,0.064,0.08,0.073C8.28,5.812,8.324,5.825,8.37,5.808
	c0.236-0.088,0.305-0.013,0.502-0.1c0,0,0.001,0,0.002-0.001c0.257-0.115,0.268-0.685,0.618-0.998
	c0.034-0.031,0.071-0.059,0.11-0.083c0.063-0.041,0.105-0.103,0.15-0.163c0.021-0.028,0.045-0.056,0.069-0.081
	c0.03-0.03,0.036-0.077,0.014-0.114C9.813,4.23,9.768,4.214,9.727,4.228C9.697,4.237,9.642,4.255,9.625,4.23
	c-0.006-0.009-0.006-0.021,0-0.03C9.637,4.18,9.67,4.137,9.673,4.118c0.002-0.016,0.011-0.031,0.023-0.042
	C9.712,4.062,9.73,4.05,9.75,4.04c0.182-0.095,0.365-0.186,0.551-0.273c0.03-0.014,0.065-0.007,0.088,0.016
	c0.049,0.048,0.085-0.011,0.131-0.06c0.056-0.061,0.125-0.11,0.201-0.143l0,0c-0.009,0.008-0.018,0.017-0.025,0.028
	c0,0.066-0.087,0.104-0.021,0.123c0.021,0.006,0.075-0.042,0.081-0.045c0.008-0.004,0.016,0,0.005,0.019
	c0.056-0.029,0.134-0.097,0.2-0.159c0.079-0.074,0.172-0.132,0.272-0.17c0.112-0.042,0.108-0.007,0.083-0.001
	C11.281,3.382,11.25,3.4,11.222,3.458c-0.008,0.018-0.058,0.064-0.074,0.078c0,0,0.133-0.056,0.237-0.074
	c0.03-0.005,0.062-0.025,0.114-0.059c0.014-0.009,0.017,0.002,0.026,0.014c0.011,0.013,0.083-0.019,0.098-0.033l0,0
	c0.01-0.01,0.012-0.025,0.005-0.038c-0.008-0.017-0.053-0.007-0.04-0.031c0.011-0.02,0.045-0.006,0.063-0.02
	c0.005-0.003,0.003-0.011-0.003-0.011c0-0.001,0-0.001,0-0.001c-0.002-0.008,0-0.017,0.006-0.023
	c0.012-0.012,0.109-0.059,0.106-0.072c0,0,0,0,0-0.001c0.463-0.153,0.907-0.299,1.396-0.379c0.099-0.016,0.099,0.084,0.051,0.101
	c-0.109,0.038-0.233,0.039-0.325,0.118c-0.008,0.007-0.01,0.019-0.005,0.028c0.005,0.009,0.016,0.013,0.026,0.01
	c0.019-0.005,0.052-0.018,0.132-0.047c0.014-0.005,0.031,0.004,0.029,0.019c-0.001,0.006-0.004,0.01-0.01,0.013
	c-0.04,0.018-0.083,0.025-0.122,0.045c-0.007,0.004-0.012,0.012-0.01,0.021c0.004,0.02-0.015,0.059-0.002,0.07l0,0
	c-0.003,0.004-0.39,0.267-0.536,0.277l0,0C12.21,3.471,12.048,3.542,12,3.582s-0.102,0.075-0.158,0.103
	c-0.118,0.059-0.224,0.159-0.292,0.234c-0.035,0.038,0.026,0.052,0.075,0.071c0,0,0.033,0.01-0.019,0.018
	c-0.194,0.027-0.36,0.246-0.411,0.319c-0.01,0.014-0.01,0.033,0,0.046c0,0.001,0.001,0.001,0.001,0.001
	c-0.09,0.089-0.099,0.098-0.165,0.232c-0.004,0.008-0.003,0.018,0.003,0.025c0.009,0.009,0.115,0.016,0.125,0.035
	c0.014,0.028-0.041,0.052-0.029,0.075c0.003,0.006,0.009,0.011,0.016,0.012c0.017,0.004-0.053,0.073-0.063,0.088
	c-0.017,0.025,0.005,0.089,0.042,0.087c0.037-0.001,0.062-0.024,0.097-0.065c0,0,0.096-0.053,0.16-0.107
	c0.063-0.052,0.19-0.067,0.237-0.156c0.026-0.049,0.072-0.08,0.111-0.088c0.017-0.003,0.033,0.006,0.039,0.022
	c0.005,0.022,0.299-0.108,0.289-0.16c-0.009-0.047,0.018-0.053,0.049-0.039c0.021,0.009,0.039,0.002,0.053-0.009
	c0.088-0.074,0.223-0.163,0.334-0.134c0.027,0.007,0.056,0.003,0.079-0.011c0.112-0.063,0.124-0.034,0.098-0.023
	c-0.029,0.011-0.111,0.041-0.094,0.067c0.004,0.007,0.012,0.01,0.02,0.007c0.048-0.019,0.098-0.029,0.149-0.03
	c0.071-0.001,0.177-0.013,0.271-0.063c0.004-0.002,0.008-0.004,0.013-0.006c0-0.001,0.001-0.001,0.002-0.001
	c0.223-0.113,0.315-0.188,0.362-0.156c0.014,0.01,0.022,0.027,0.021,0.044c0,0,0,0,0.001,0c0.036,0.025,0.075,0,0.119-0.011
	c0,0,0.036,0.037,0.17,0.035c-0.032,0.082,1.373-0.223,2.262-0.96c0.243-0.202,0.515-0.389,0.785-0.556
	c1.469,0.08,2.874,0.395,4.182,0.908c0.043,0.017,0.068,0.062,0.062,0.108c-0.011,0.067-0.091,0.086-0.097,0.102
	c-0.019,0.049,0.108,0.113,0.146,0.15c0.021,0.021,0.021,0.054,0.002,0.076c0,0-0.001,0-0.002,0
	c-0.062-0.015-0.128,0.001-0.177,0.043C20.816,3.957,20.75,3.986,20.711,4c-0.023,0.009-0.046,0.022-0.062,0.039l0,0
	c-0.022-0.006-0.047-0.006-0.067,0.002c-0.088,0.032-0.14,0.199-0.12,0.261c0.007,0.024,0.002,0.051-0.016,0.071
	c-0.021,0.026-0.055,0.036-0.086,0.025c-0.019-0.006-0.069,0.038-0.045,0.057c0.031,0.022-0.01,0.039-0.041,0.06
	c-0.015,0.01-0.033,0.014-0.053,0.008c-0.107-0.033-0.102-0.06-0.135,0.024c-0.016,0.039-0.036,0.077-0.062,0.11
	c-0.018,0.021-0.015,0.052,0.006,0.071c0.158,0.152-0.07,0.128-0.152,0.091c-0.072-0.034-0.117,0.092,0.021,0.093
	c0.037,0,0.072,0.016,0.099,0.044l0,0c0.069,0.079-0.093,0.053-0.19,0.018c-0.086-0.03-0.166-0.074-0.238-0.13
	c-0.045-0.036-0.062-0.096-0.041-0.15c0.02-0.054,0.07-0.089,0.127-0.087c0.084,0.002,0.154-0.059,0.164-0.141
	s-0.045-0.158-0.127-0.174c-0.197-0.042-0.418-0.016-0.603-0.101c-0.159-0.073-0.291-0.061-0.331-0.114
	c-0.018-0.023-0.023-0.053-0.021-0.081c-0.084-0.017-0.139-0.027-0.176-0.035c-0.035-0.007-0.143-0.009-0.289,0.037
	c-0.316,0.101-0.617,0.395-0.617,0.395s-0.062,0.103-0.119,0.17c-0.053,0.061-0.094,0.134-0.152,0.19
	c-0.023,0.021-0.04,0.05-0.046,0.081h-0.001l0,0c-0.031,0.009-0.057,0.033-0.064,0.064c-0.039,0.137-0.146,0.342-0.727,0.586l0,0
	c-0.17,0.072-0.277,0.243-0.269,0.428c0.01,0.185,0.134,0.344,0.31,0.398c0.221,0.067,0.271-0.175,0.52-0.101
	c0.093,0.028,0.166,0.098,0.199,0.19c0.041,0.113,0.098,0.18,0.103,0.324c0.05,0.049,0.194,0.159,0.212,0.084
	c0.041-0.176,0.219-0.06,0.295-0.206c0.064-0.125-0.032-0.257,0.016-0.383c0-0.001,0.002-0.001,0.002-0.002
	c0.061-0.148,0.075-0.309,0.045-0.466c-0.015-0.073,0.006-0.185,0.041-0.395c0.014-0.083,0.174-0.125,0.213-0.186
	c0.066-0.105-0.045-0.305,0.123-0.343c0.084-0.019,0.232,0.02,0.254,0.107c0.006,0.031,0,0.063-0.021,0.088
	c-0.047,0.061-0.068,0.143-0.109,0.208c-0.086,0.131-0.104,0.295-0.051,0.441c0.047,0.126,0.123,0.24,0.243,0.25
	c0.034,0.003,0.069-0.006,0.099-0.025l0,0c0,0,0,0,0.002,0l0,0l0.172-0.061c0.144-0.05,0.297-0.06,0.445-0.028
	c0.014,0.003,0.025,0.014,0.028,0.028c0.004,0.014-0.001,0.028-0.013,0.038C19.223,6.032,19.188,5.926,19,5.96
	c-0.064,0.012-0.113,0.063-0.122,0.128c-0.008,0.059,0.021,0.115,0.069,0.146c0.01,0.006,0.016,0.017,0.014,0.028c0,0,0,0,0,0.001
	c-0.004,0.057-0.039,0.106-0.092,0.128c-0.039,0.017-0.084,0.016-0.122-0.001c-0.029-0.013-0.063-0.01-0.091,0.008
	c-0.055,0.036-0.034,0.061-0.045,0.108c-0.018,0.075-0.014,0.153,0.013,0.227l0,0c0.041,0.12-0.181,0.334-0.271,0.317
	c-0.182-0.033-0.369-0.004-0.531,0.082c-0.078,0.041-0.174,0.029-0.236-0.03c-0.001,0-0.001,0-0.002,0
	c-0.043-0.04-0.002-0.057-0.057-0.091c-0.012-0.007-0.295,0.111-0.307,0.116c-0.015,0.005-0.027,0.003-0.039-0.004
	c-0.013-0.008-0.021-0.02-0.021-0.034V7.088c-0.01-0.082-0.378-0.071-0.092-0.391c0.002,0,0.002,0,0.002-0.001
	c0.029-0.032,0.043-0.077,0.037-0.121c-0.012-0.073,0.002-0.143-0.064-0.171l-0.001,0.001c-0.149,0.157-0.224,0.375-0.194,0.591
	c0.019,0.24-0.097,0.199-0.185,0.197c-0.037-0.001-0.072,0.014-0.097,0.042c0,0,0,0-0.002,0.001c-0.033,0-0.083,0-0.167,0.008
	c-0.035,0.003-0.068,0.022-0.09,0.05c-0.003,0.003-0.004,0.007-0.003,0.011c0.003,0.02-0.01,0.039-0.029,0.043
	c-0.064,0.016-0.124,0.047-0.174,0.091c-0.114,0.104-0.173,0.147-0.293,0.214c-0.084,0.047-0.157,0.108-0.221,0.181
	c-0.026,0.03-0.082,0.063-0.215,0.139c-0.013,0.006-0.021,0.018-0.024,0.032c-0.007,0.029-0.03,0.051-0.06,0.055
	c-0.117,0.017-0.151-0.012-0.22-0.056c-0.034-0.023-0.062,0.025-0.053,0.055c0,0.001,0,0.001,0,0.001
	C15.024,8.09,15.018,8.122,15,8.147c-0.019,0.025-0.047,0.041-0.078,0.042c-0.081,0.004-0.163-0.013-0.235-0.05
	c-0.007-0.003-0.014-0.004-0.021-0.001c-0.118,0.038-0.188,0.18-0.159,0.183c0.204,0.022,0.201,0.058,0.283,0.109
	c0.097,0.062,0.05,0.251,0.197,0.267c0.001,0,0.001,0,0.003,0c0.018,0.001,0.033,0.151,0.036,0.169
	c0.003,0.014-0.003,0.028-0.015,0.036c-0.045,0.029-0.073,0.076-0.081,0.128c-0.013,0.099-0.003,0.205-0.069,0.289
	c-0.028,0.037-0.092,0.103-0.168,0.073c-0.08-0.031-0.167-0.049-0.253-0.053c-0.356-0.017-0.566-0.092-0.67-0.146
	c-0.077-0.039-0.171-0.021-0.227,0.045c-0.025,0.001-0.055,0.003-0.084,0.004c-0.053,0.003-0.09,0.053-0.078,0.104
	c0.028,0.116,0.028,0.234-0.107,0.58c-0.005,0.014-0.013,0.032-0.02,0.044c-0.043,0.082-0.202,0.243-0.164,0.285
	c0.004,0.005,0.01,0.008,0.017,0.008c0.033,0.001,0.062,0.021,0.074,0.052c0.01,0.026,0.012,0.055,0.005,0.083
	c-0.011,0.045-0.06,0.203-0.041,0.241c0.011,0.022,0.031,0.038,0.055,0.044c0.034,0.011,0.058,0.038,0.087,0.056
	c0.022,0.013,0.094-0.018,0.137-0.037c0.032-0.014,0.052-0.022,0.122,0.059c0.065,0.075,0.014,0.248,0.152,0.25
	c0.038,0,0.059-0.036,0.068-0.058c0.01-0.024,0.01-0.024,0.275-0.082c0.118-0.026,0.232,0.048,0.351,0.013
	c0.09-0.028,0.095-0.147,0.188-0.173c0.061-0.018,0.126,0.017,0.187-0.015c0.032-0.018,0.002-0.117,0.038-0.148l0,0
	c0.055-0.047,0.077-0.123,0.055-0.191c-0.01-0.033-0.008-0.043-0.003-0.067c0.007-0.029,0.093-0.079,0.143-0.193
	c0.005-0.01,0.01-0.019,0.017-0.025c0.162-0.149,0.383-0.184,0.567-0.289c0.162-0.093,0.049-0.343,0.24-0.419
	c0.177-0.07,0.308,0.176,0.49,0.072c0.192-0.11,0.433-0.247,0.483-0.25c0.053-0.002,0.1,0.011,0.141,0.029
	c0.061,0.028,0.111,0.073,0.146,0.13c0.176,0.281,0.509,0.4,0.712,0.652c0.03,0.038,0.187,0.13,0.245,0.186
	c0.096,0.089,0.041-0.027,0.124,0.117c0,0,0.001,0.001,0.001,0.002c0.041,0.063,0.111,0.174,0.044,0.203
	c-0.047,0.02-0.047,0.034-0.046,0.051c0.001,0.036-0.03,0.07-0.008,0.108c0.007,0.011,0.029,0.043,0.082,0.019
	c0.061-0.032,0.037-0.043,0.062-0.089c0.069-0.138,0.058-0.126,0.058-0.126c0.02-0.015,0.059-0.002,0.064-0.037
	c0.016-0.083-0.043-0.112-0.081-0.129c-0.024-0.012-0.069-0.034-0.043-0.104c0.001-0.002,0.001-0.003,0.002-0.005
	c0,0,0.001-0.001,0.001-0.002c0.029-0.062,0.104-0.09,0.166-0.063c0.047,0.02,0.082,0.029,0.1,0.077
	c0.002,0.008,0.004,0.017,0.004,0.023c0,0.021-0.002,0.041,0.008,0.049c0.014,0.012,0.059,0.001,0.068-0.021
	c0.008-0.012,0.017-0.055,0.016-0.069l0,0c0-0.001,0-0.001,0-0.002c0-0.002-0.001-0.004-0.002-0.006
	C18.546,10,18.333,9.986,18.169,9.892c-0.019-0.011-0.03-0.029-0.03-0.048c-0.006-0.042-0.039-0.072-0.082-0.072
	c-0.101,0.001-0.195-0.048-0.252-0.131L17.46,9.14c-0.015-0.021-0.028-0.042-0.041-0.065c-0.022-0.041-0.003-0.091,0.039-0.107
	c0.002-0.001,0.005-0.002,0.008-0.003c0.066-0.02,0.14,0.006,0.177,0.064c0.02,0.029,0.039,0.062,0.072,0.059
	c0.042-0.002,0.083,0.01,0.117,0.034l0.593,0.432c0,0,0,0,0.001,0.001c0,0,0.051,0.011,0.126,0.061
	c0.017,0.01,0.035,0.016,0.056,0.015c0.029-0.001,0.058,0.008,0.08,0.027c0.09,0.073,0.148,0.177,0.162,0.292
	c0.006,0.052,0.01,0.098,0.012,0.131l0,0c0.004,0.043,0.025,0.082,0.062,0.107c0.017,0.011,0.036,0.026,0.048,0.039
	c0.016,0.015,0.018,0.02,0.045,0.065c0.01,0.02,0.08,0.081,0.086,0.086c0,0,0,0,0,0.001c0.004,0.002,0.012,0.007,0.023,0.007
	c0.001,0,0.002,0,0.002,0c0.021,0,0.041-0.008,0.062-0.007c0.063,0.003,0.16,0.085,0.233,0.048c0.007-0.003,0.084-0.048,0.084-0.048
	h0.001c0.18-0.083-0.042-0.167-0.049-0.249c-0.003-0.029,0.008-0.051,0.027-0.064c0.019-0.013,0.043-0.016,0.066-0.004
	c0.014,0.006,0.028,0.004,0.041-0.004l0,0c0.016-0.011,0.024-0.026,0.028-0.044c0.021-0.094,0.116-0.121,0.211-0.121
	c0.079,0,0.157,0.02,0.228,0.059c0.027,0.015,0.061,0.023,0.094,0.021c0.062-0.003,0.119-0.024,0.17-0.061
	c0.023-0.017-0.029,0.046-0.146,0.09c0,0-0.002,0.001-0.003,0.001c-0.049,0.02-0.075,0.072-0.063,0.124
	c0.023,0.104,0.238,0.205,0.099,0.338c-0.002,0.002-0.004,0.003-0.006,0.005c0.001,0,0.001,0,0.001,0
	c0.078,0.032,0.145,0.088,0.188,0.161c0.144,0.239,0.619,0.313,0.662,0.212c0,0,0,0,0-0.001c0.021-0.055,0.082-0.082,0.137-0.062
	c0.109,0.042,0.207,0.123,0.332,0.11c0.07-0.008,0.123-0.034,0.164-0.07c0.117-0.101,0.265-0.162,0.418-0.174
	c0.002,0,0.004,0,0.004,0.002c0.002,0.001,0.002,0.002,0.002,0.003c-0.077,0.456,0.43,0.962-0.07,1.375
	c-0.04,0.032-0.109,0.049-0.161,0.058c-0.45,0.08-0.907,0.008-1.36,0.039c-0.262,0.018-0.299-0.076-0.381-0.077
	c-0.002,0-0.002,0-0.002,0s-0.002,0-0.003,0c-0.088,0.001-0.104,0.001-0.235-0.028c-0.082-0.019-0.301-0.333-0.6-0.09
	c-0.086,0.07-0.137,0.16-0.135,0.212c0.037,0.746-0.88,0.197-0.948,0.116c-0.104-0.125-0.243-0.217-0.401-0.262
	c-0.172-0.05-0.379-0.118-0.512-0.186c-0.099-0.052-0.219-0.083-0.27-0.086c-0.02-0.003-0.028-0.093,0.027-0.15
	c0.147-0.149,0.194-0.21,0.147-0.289c-0.124-0.208-0.043-0.19-0.151-0.332c0,0,0,0-0.002-0.001c-0.037-0.05-0.099-0.077-0.162-0.073
	c-1.854,0.118-2.252,0.172-2.618,0.348c-0.032,0.015-0.099,0.046-0.202,0.001c-0.079-0.035-0.168-0.039-0.25-0.009
	c-0.12-0.08-0.277-0.072-0.389,0.019l-0.604,0.491c-0.062,0.049-0.115,0.11-0.157,0.176c-0.109,0.172-0.102,0.301-0.099,0.363
	c0.01,0.193-0.543,0.549-0.835,0.517c-0.001,0-0.001,0-0.001,0c0-0.001,0-0.001,0-0.001c-0.134,0.054-0.25,0.101-0.921,1.038
	c-0.369,0.514-0.369,0.514-0.294,0.656c0.041,0.077,0.122,0.232,0.06,0.66c-0.003,0.027-0.009,0.056-0.016,0.083
	c-0.003,0.013-0.007,0.026-0.011,0.039l-0.258,0.859c-0.072,0.24-0.025,0.502,0.127,0.701c0.001,0,0.002,0,0.002,0.002l0.057,0.106
	c0.009,0.019,0.018,0.036,0.026,0.054c0.055,0.125,0.133,0.828,0.34,1.146c0.033,0.05,0.07,0.096,0.113,0.139l0.654,0.644
	c0.115,0.112,0.343,0.188,0.501,0.221c0.467,0.091,0.962,0.095,1.421,0.267c0.022,0.008,0.052,0.021,0.076,0.021
	c0.531,0.037,0.968-0.406,1.482-0.442c0.121-0.009,0.367,0.07,0.43,0.432c0.047,0.268,0.461,0.184,0.656,0.127
	c0.088-0.025,0.183-0.021,0.269,0.014c0.001,0,0.001,0,0.002,0.002v0.002c0.006,0.059,0.058,0.102,0.114,0.096
	c0.002,0,0.005,0,0.007,0c0.032-0.004,0.065,0.013,0.084,0.039c0.106,0.162,0.086,0.267,0.069,0.345l0,0c0,0.002,0,0.002,0,0.004
	l-0.006,0.024c0,0.002,0,0.002,0,0.004c-0.006,0.021-0.009,0.039-0.012,0.06c-0.054,0.396-0.021,0.578-0.204,0.726
	c-0.02,0.016-0.035,0.036-0.045,0.059c0.198,0.408,0.631,0.613,0.631,0.613c0.063,0.067,0.437,0.711,0.476,0.994
	c0.062,0.434,0.062,0.352,0.072,0.368c0.19,0.312,0.023,0.459-0.093,0.519c-0.034,0.02-0.054,0.033-0.063,0.053
	c-0.018,0.033-0.036,0.068-0.06,0.1c-0.019,0.027-0.258,0.67-0.257,0.805l0,0c0.002,0.123,0.204,0.24,0.275,0.341l0.459,0.641
	c0.008,0.013,0.016,0.022,0.023,0.033c0.158,0.198-0.086,0.481,0.057,0.685c0.047,0.065,0.16,0.327,0.22,0.368
	c0.093,0.064,0.481,0.627,0.366,0.724c-0.012,0.01-0.01,0.037-0.006,0.053c0.035,0.1,0.506,0.26,0.682,0.186
	c0.259-0.109,0.802-0.197,1.021-0.195c0.307,0.002,1.778-1.053,1.662-1.416c-0.002-0.006-0.002-0.01,0-0.016l0,0
	c0.172-0.203,0.67-0.453,0.657-0.479c-0.001,0-0.001,0-0.002-0.002c0.065-0.144,0.088-0.262,0.089-0.357
	c0.003-0.256,0.126-0.498,0.333-0.65c0.177-0.131,0.435-0.315,0.812-0.588c0.234-0.172,0.354-0.293,0.332-1.026
	c-0.018-0.675-0.137-1.199-0.178-1.312c-0.057-0.16-0.041-0.189,0.022-0.31c0.188-0.349,0.444-0.656,0.627-1.013
	c0.287-0.562,0.642-0.895,0.834-1.073c0.009-0.009,0.017-0.017,0.022-0.023c0.352-0.411,0.553-0.967,0.681-1.487
	c0.026-0.109,0.069-0.215,0.102-0.322c0.024-0.082,0.062-0.152,0.104-0.578c0.008-0.072-0.032-0.137-0.029-0.209
	c0.016-0.279-0.08-0.033-0.162,0.006c-0.209,0.099-0.096,0.064-0.188,0.124c-0.043,0.028-0.381,0.147-0.422,0.185
	c-0.049,0.045-0.092,0.095-0.162,0.104c-0.416,0.052-0.488,0.062-0.562-0.007c-0.069-0.064-0.112-0.146-0.132-0.237
	c-0.02-0.097-0.068-0.187-0.145-0.257c-0.397-0.372-1.178-0.613-1.361-1.62c-0.028-0.151-1.137-1.751-1.363-2.075
	c-0.025-0.036-0.033-0.082-0.021-0.125v-0.001c0.043,0.11,0.215,0.307,0.32,0.416c0.028,0.031,0.071,0.045,0.105,0.019
	c0.041-0.031,0.014-0.077,0.021-0.224c0.002-0.042,0.062-0.045,0.069-0.003c0.017,0.091,0.06,0.175,0.127,0.239
	c0.146,0.142,0.326,0.405,0.444,0.59c0.072,0.114,0.17,0.207,0.287,0.272c0.168,0.095,0.219,0.25,0.338,0.619
	c0.144,0.437,0.654,0.541,0.843,0.935c0.16,0.333,0.203,0.712,0.405,1.027c0.002,0.002,0.004,0.004,0.005,0.006
	c0.026,0.035,0.069,0.051,0.112,0.042c0.31-0.073,0.668-0.459,0.756-0.528c0.188-0.146,0.322-0.254,0.422-0.338
	c0.136-0.114,0.229-0.268,0.271-0.44c0.034-0.146,0.255-0.272,0.321-0.272c0.173-0.001,0.095-0.226,0.167-0.326
	c0.077-0.106,0.082-0.225,0.171-0.319c0.027-0.03,0.062-0.054,0.1-0.073c0.004-0.001,0.006-0.005,0.008-0.009
	c0.021-0.113-0.051-0.217-0.049-0.328c0-0.028,0.026-0.051,0.056-0.045c0.001,0,0.002,0,0.003,0s0.001-0.001,0.002-0.002
	c0.062-0.35,0.179-0.645-0.13-0.79c-0.122-0.058-0.271,0.033-0.386-0.066c0,0,0-0.001-0.002-0.001
	c-0.062-0.054-0.146-0.076-0.228-0.059s-0.149,0.07-0.187,0.144c0,0.001,0,0.002,0,0.002c-0.032,0.064-0.094,0.108-0.166,0.119
	c-0.114,0.017-0.103,0.037-0.189,0.104l0,0c-0.188-0.099-0.305-0.107-0.966-1.094c-0.197-0.293,0.071-0.44,0.164-0.333l0,0h0.001
	c0.082,0.089,0.418,0.444,0.689,0.596c0.092,0.052,0.371,0.123,0.422,0.029c0.189-0.346,0.326-0.095,0.353-0.04
	c0.14,0.296,0.526,0.038,0.612,0.043c0.188,0.009,0.172-0.03,0.713-0.335c0.214-0.122,0.471-0.14,0.701-0.052
	c0.229,0.089,0.406,0.277,0.482,0.511c0.244,0.746,0.482,2.158,0.482,3.555C29.493,23.453,23.452,29.494,16,29.494z M13.829,7.388
	c-0.003-0.018-0.004-0.063,0.005-0.087c0.028-0.063,0.094-0.09,0.134-0.142c0.048-0.063,0.04-0.071,0.022-0.085
	c-0.022-0.02-0.016-0.037,0-0.057c0.019-0.024,0.044-0.042,0.062-0.066c0.017-0.02,0.019-0.047,0.04-0.063
	c0.027-0.022,0.047-0.021,0.088-0.018c0.033,0.002,0.111-0.14,0.209-0.165c0.093-0.024,0.243,0.155,0.2,0.218
	C14.58,6.937,14.556,6.94,14.53,6.944c-0.026,0.004-0.042,0.005-0.064,0.073c-0.009,0.025,0.02,0.06-0.013,0.078
	c-0.029,0.016-0.006,0.047-0.016,0.069c-0.02,0.044-0.061,0.1-0.084,0.131c-0.025,0.031-0.097,0.009-0.179,0.031l-0.001,0.001
	c-0.06,0.016-0.112,0.049-0.168,0.074C13.944,7.428,13.841,7.454,13.829,7.388z"/>
</svg>
