<?xml version="1.0" encoding="utf-8"?>
<!-- Generator: Adobe Illustrator 15.0.0, SVG Export Plug-In . SVG Version: 6.00 Build 0)  -->
<!DOCTYPE svg PUBLIC "-//W3C//DTD SVG 1.1//EN" "http://www.w3.org/Graphics/SVG/1.1/DTD/svg11.dtd">
<svg version="1.1" id="Layer_1" xmlns="http://www.w3.org/2000/svg" xmlns:xlink="http://www.w3.org/1999/xlink" x="0px" y="0px"
	 width="48px" height="48px" viewBox="0 0 48 48" enable-background="new 0 0 48 48" xml:space="preserve">
<path fill="#CECECC" d="M9.329,34.789H1.35V21.261c0-7.859,5.685-14.254,13.902-14.254h10.913v7.979H15.251
	c-3.818,0-5.924,2.814-5.924,6.275L9.329,34.789L9.329,34.789z"/>
<path fill="#FFD400" d="M44.371,33.624l3.908-5.218h-3.908v-5.442c0-8.799-6.158-15.957-14.955-15.957H22.57v7.979h6.846
	c4.398,0,6.979,3.578,6.979,7.979v5.441h-3.908l3.908,5.218v0.003h0.002l3.985,5.318l3.985-5.318h0.004V33.624z"/>
</svg>
