<?xml version="1.0" encoding="utf-8"?>
<!-- Generator: Adobe Illustrator 15.0.0, SVG Export Plug-In . SVG Version: 6.00 Build 0)  -->
<!DOCTYPE svg PUBLIC "-//W3C//DTD SVG 1.1//EN" "http://www.w3.org/Graphics/SVG/1.1/DTD/svg11.dtd">
<svg version="1.1" xmlns="http://www.w3.org/2000/svg" xmlns:xlink="http://www.w3.org/1999/xlink" x="0px" y="0px" width="350px"
	 height="219px" viewBox="0 0 350 219" enable-background="new 0 0 350 219" xml:space="preserve">
<g id="Layer_1">
	<g>
		<g>
			<g>
				<g>
					<path fill="#231F20" d="M320.31,203.587c1.806,0,3.265-1.461,3.265-3.268v-28.271c0-1.802-1.459-3.265-3.265-3.265
						c-1.801,0-3.265,1.463-3.265,3.265v28.271C317.045,202.126,318.509,203.587,320.31,203.587z"/>
				</g>
				<g>
					<path fill="#231F20" d="M280.131,203.587c1.806,0,3.269-1.461,3.269-3.268V163.33c0-1.803-1.463-3.264-3.269-3.264
						c-1.805,0-3.267,1.461-3.267,3.264v36.989C276.864,202.126,278.326,203.587,280.131,203.587z"/>
				</g>
				<g>
					<path fill="#231F20" d="M280.131,165.507c1.806,0,3.269-1.461,3.269-3.266c0-1.804-1.463-3.263-3.269-3.263
						c-13.799,0-25.029-8.001-25.029-17.828c0-1.808-1.463-3.268-3.267-3.268s-3.267,1.46-3.267,3.268
						C248.568,154.582,262.726,165.507,280.131,165.507z"/>
				</g>
				<g>
					<path fill="#231F20" d="M278.616,152.965c4.226,0,8.258-1.396,11.398-4.055c1.374-1.166,1.546-3.229,0.381-4.606
						c-1.166-1.373-3.225-1.545-4.602-0.38c-2.874,2.429-6.845,3.148-10.903,1.972c-3.998-1.162-7.119-3.904-8.137-7.155
						c-0.538-1.723-2.365-2.678-4.096-2.143c-1.715,0.538-2.678,2.371-2.137,4.095c1.66,5.316,6.473,9.713,12.546,11.474
						C274.921,152.702,276.783,152.965,278.616,152.965z"/>
				</g>
				<g>
					<path fill="#231F20" d="M330.722,187.497c1.806,0,3.264-1.464,3.264-3.269V158.45c0-1.805-1.458-3.27-3.264-3.27
						c-1.801,0-3.263,1.464-3.263,3.27v25.778C327.459,186.033,328.921,187.497,330.722,187.497z"/>
				</g>
				<g>
					<path fill="#231F20" d="M323.579,196.612c6.132,0,10.406-6.523,10.406-12.384c0-1.804-1.458-3.265-3.264-3.265
						c-1.801,0-3.263,1.461-3.263,3.265c0,2.844-1.998,5.852-3.88,5.852c-1.803,0-3.27,1.464-3.27,3.264
						C320.31,195.15,321.776,196.612,323.579,196.612z"/>
				</g>
				<g>
					<path fill="#231F20" d="M330.722,161.714c1.806,0,3.264-1.46,3.264-3.264c0-2.304-1.038-9.866-14.429-10.408
						c-1.811-0.088-3.323,1.327-3.396,3.131c-0.071,1.802,1.328,3.32,3.131,3.395c1.917,0.078,8.168,0.587,8.168,3.883
						C327.459,160.254,328.921,161.714,330.722,161.714z"/>
				</g>
				<g>
					<path fill="#231F20" d="M318.111,154.571c1.8,0,3.264-1.46,3.264-3.266c0-1.804-1.464-3.267-3.264-3.267
						c-2.846,0-5.855-1.995-5.855-3.879c0-1.803-1.462-3.267-3.266-3.267c-1.802,0-3.269,1.464-3.269,3.267
						C305.722,150.296,312.252,154.571,318.111,154.571z"/>
				</g>
				<g>
					<path fill="#231F20" d="M299.44,102.68c11.212,0,20.337,9.124,20.337,20.333c0,11.214-9.125,20.339-20.337,20.339
						c-11.213,0-20.339-9.125-20.339-20.339C279.102,111.804,288.228,102.68,299.44,102.68 M299.44,97.379
						c-14.158,0-25.634,11.478-25.634,25.633c0,14.159,11.476,25.638,25.634,25.638c14.157,0,25.634-11.479,25.634-25.638
						C325.074,108.857,313.598,97.379,299.44,97.379L299.44,97.379z M299.44,102.68c11.212,0,20.337,9.124,20.337,20.333
						c0,11.214-9.125,20.339-20.337,20.339c-11.213,0-20.339-9.125-20.339-20.339C279.102,111.804,288.228,102.68,299.44,102.68"/>
				</g>
			</g>
			<g>
				<path fill="#231F20" d="M265.195,133.138H239.64V92.841h25.556V133.138z M245.288,127.487h14.258V98.491h-14.258V127.487z"/>
			</g>
		</g>
		<rect x="12.307" y="25.635" fill="#594A42" width="233.224" height="176.96"/>
		<g>
			<defs>
				<rect id="SVGID_27_" x="19.223" y="25.635" width="219.396" height="176.96"/>
			</defs>
			<clipPath id="SVGID_1_">
				<use xlink:href="#SVGID_27_"  overflow="visible"/>
			</clipPath>
			<g clip-path="url(#SVGID_1_)">
				
					<image overflow="visible" width="720" height="1280" xlink:href="../../design/menu/menu_01.png"  transform="matrix(0.3047 0 0 0.3047 19.2256 -49.2461)">
				</image>
			</g>
		</g>
		<g>
			<rect x="48.091" y="124.521" fill="#CE9C14" width="125.196" height="25.012"/>
			<text transform="matrix(1 0 0 1 67.2773 139.9297)" fill="#FFFFFF" font-family="'Roboto-Light'" font-size="8.0593">RECEIVE A SHARE</text>
		</g>
	</g>
</g>
<g id="Layer_3">
	<rect x="23.167" y="28.333" fill="#231F20" width="20.333" height="87.533"/>
	<rect x="175.953" y="28.333" fill="#231F20" width="20.333" height="87.533"/>
</g>
<g id="Layer_2">
	<path fill="#FFD400" d="M30.328,68.263v12.976l4.732-2.923l4.732,2.923V68.263H30.328z M37.302,76.912l-2.242-1.346l-2.243,1.346
		l0.586-2.55l-1.972-1.717l2.605-0.229l1.024-2.406l1.023,2.406l2.606,0.229l-1.972,1.717L37.302,76.912z"/>
	<g>
		<path fill="#FFD400" d="M40.868,108.549v-1.616c0-2.614-1.829-4.74-4.441-4.74h-0.25v2.37h0.25c1.306,0,2.073,1.063,2.073,2.371
			v1.617h-1.161l1.161,1.55l0,0h0l1.183,1.58l1.183-1.58h0.001l0,0l1.161-1.55L40.868,108.549L40.868,108.549L40.868,108.549z"/>
		<path fill="#FFD400" d="M32.66,102.192h-0.128c-2.613,0-4.441,2.126-4.441,4.739v3.488h2.369v-3.488
			c0-1.306,0.766-2.369,2.073-2.369h0.128v1.173l3.13-2.346l-3.131-2.345V102.192z"/>
	</g>
	<g>
		<g>
			<path fill="#FFD400" d="M31.751,35.478v3.89h-3.604v5.688l0,0c0.01,1.178,0.951,2.135,2.121,2.175v0.002h9.758
				c1.209,0,2.195-0.984,2.195-2.195v-9.561H31.751z M30.343,46.447c-0.777,0-1.409-0.634-1.409-1.409v-4.885h2.817v1.086h-1.939
				v0.788h1.939v0.764h-1.939v0.786h1.939v1.46C31.751,45.813,31.12,46.447,30.343,46.447z M41.435,45.039
				c0,0.775-0.632,1.409-1.409,1.409h-8c0.319-0.383,0.513-0.874,0.513-1.409v-8.774h8.897L41.435,45.039L41.435,45.039
				L41.435,45.039z"/>
		</g>
		<rect x="38.001" y="38.043" fill="#FFD400" width="2.659" height="0.786"/>
		<rect x="38.001" y="39.618" fill="#FFD400" width="2.659" height="0.786"/>
		<rect x="38.001" y="41.17" fill="#FFD400" width="2.659" height="0.786"/>
		<rect x="33.242" y="42.778" fill="#FFD400" width="7.418" height="0.788"/>
		<rect x="33.242" y="38.04" fill="#FFD400" width="3.635" height="3.592"/>
	</g>
	<circle fill="#FFD400" cx="186.119" cy="73.953" r="7.286"/>
	<circle fill="#FFD400" cx="186.119" cy="106.937" r="7.286"/>
	<text transform="matrix(1 0 0 1 182.1777 76.3325)" font-family="'Roboto-Regular'" font-size="7">15</text>
	<text transform="matrix(1 0 0 1 182.1777 109.4204)" font-family="'Roboto-Regular'" font-size="7">20</text>
</g>
</svg>
